<?xml version="1.0" standalone="no"?>
<!DOCTYPE svg PUBLIC "-//W3C//DTD SVG 20010904//EN"
 "http://www.w3.org/TR/2001/REC-SVG-20010904/DTD/svg10.dtd">
<svg version="1.0" xmlns="http://www.w3.org/2000/svg"
 width="328.000000pt" height="328.000000pt" viewBox="0 0 328.000000 328.000000"
 preserveAspectRatio="xMidYMid meet">

<g transform="translate(0.000000,328.000000) scale(0.100000,-0.100000)"
fill="#000000" stroke="none">
<path d="M345 2822 c-64 -22 -109 -54 -145 -104 -63 -87 -61 -39 -58 -1094 3
-956 3 -959 24 -1005 31 -66 86 -123 147 -150 l52 -24 1275 0 1275 0 57 28
c64 32 111 80 142 146 21 45 21 56 24 857 3 796 2 813 -18 866 -27 74 -79 131
-148 165 l-57 28 -640 3 -641 3 -149 149 -150 150 -470 0 c-420 -1 -475 -3
-520 -18z m1433 -834 c30 -11 69 -33 87 -50 35 -30 75 -118 75 -164 0 -24 -2
-25 -52 -22 -51 3 -53 4 -61 39 -17 71 -82 118 -176 126 -75 7 -137 -11 -178
-52 -29 -29 -33 -40 -33 -85 0 -69 31 -101 115 -119 171 -37 274 -65 307 -84
101 -56 134 -215 67 -323 -23 -38 -78 -76 -145 -100 -67 -24 -230 -25 -299 -1
-101 34 -172 121 -182 222 l-6 55 51 0 c54 0 52 2 67 -64 17 -77 89 -126 197
-134 168 -12 273 70 236 184 -17 51 -65 77 -205 110 -182 44 -213 55 -250 87
-46 41 -63 82 -63 154 1 131 87 223 225 242 71 10 161 1 223 -21z"/>
</g>
</svg>
